# xmcd CD database file
#
# Track frame offsets:
#	187
#	12502
#	25227
#	37915
#	55450
#	69430
#	96062
#	106757
#	124947
#	135880
#	144527
#	167825
#
# Disc length: 2405 seconds
#
# Revision: 4
# Processed by: cddbd v1.5PL3 Copyright (c) Steve Scherf et al.
# Submitted via: Feurio! 1.67 - http://www.feurio.com
#
DISCID=9b09630c
DTITLE=Commander Cody - Hot Licks, Cold Steel and Trucker's Favorites
DYEAR=1972
DGENRE=Country
TTITLE0=Truck Stop Rock
TTITLE1=Truck Drivin' Man
TTITLE2=Rip It Up
TTITLE3=Cravin' Your Love
TTITLE4=It Should've Been Me
TTITLE5=Watch My .38
TTITLE6=Semi-Truck
TTITLE7=Kentucky Hills of Tennessee
TTITLE8=Looking at the World Through a Windshield
TTITLE9=Diggy Liggy Lo
TTITLE10=Mama Hated Diesels
TTITLE11=Tutti Frutti
EXTD=YEAR: 1972 ID3G: 2
EXTT0=
EXTT1=
EXTT2=
EXTT3=
EXTT4=
EXTT5=
EXTT6=
EXTT7=
EXTT8=
EXTT9=
EXTT10=
EXTT11=
PLAYORDER=
